:version 1.10
:name ASF
:units
  mass 1
  length 1
  angle deg
:documentation
  ASF file generated by Kaydara
:root
  axis xyz
  order  tx ty tz rx ry rz
  position 0 0 0
  orientation 0 0 0
:bonedata
  begin
    id 1
    name RightUpLegDummy
    direction -1 2.30186e-007 8.31532e-007
    length 4.04083
    axis 0 0 0 xyz
  end
  begin
    id 2
    name RightUpLeg
    direction -0.000919234 -0.999985 0.00544864
    length 17.4221
    axis -3.80308 -0.00076134 -0.0523649 xyz
    dof rx ry rz
  end
  begin
    id 3
    name RightLeg
    direction -0.000919271 -0.999984 -0.00555045
    length 17.1239
    axis 4.00314 0.0181274 -0.183583 xyz
    dof rx ry rz
  end
  begin
    id 4
    name RightFoot
    direction -2.57843e-005 -4.04509e-007 1
    length 6.72091
    axis 8.18909e-005 -0.122003 -0.403008 xyz
    dof rx ry rz
  end
  begin
    id 5
    name RightToes
    direction 0.00116825 -0.014069 0.9999
    length 3.85082
    axis 0.000514414 0.540638 -0.356797 xyz
    dof rx ry rz
  end
  begin
    id 6
    name SpineDummy
    direction 0.0168869 0.966876 -0.254689
    length 6.99894
    axis 0 0 0 xyz
  end
  begin
    id 7
    name Spine
    direction -0.0132008 0.999903 0.00446247
    length 11.1999
    axis -0.00148109 0.00725429 0.756411 xyz
    dof rx ry rz
  end
  begin
    id 8
    name Spine1
    direction 0 0 0
    length 0
    axis -0.000934958 0.0245693 1.46543 xyz
    dof rx ry rz
  end
  begin
    id 9
    name HEadDummy
    direction -0.0255732 0.999672 0.00128215
    length 3.43865
    axis -0.000934958 0.0245693 1.46543 xyz
  end
  begin
    id 10
    name HEad
    direction -0.0472656 0.980052 0.19304
    length 5.12695
    axis -0.000934954 0.0245693 1.46543 xyz
    dof rx ry rz
  end
  begin
    id 11
    name LeftShoulder1Dummy
    direction 0.953098 0.301717 -0.023914
    length 3.68488
    axis -0.000934958 0.0245693 1.46543 xyz
  end
  begin
    id 12
    name LeftShoulder1
    direction 0.962466 0.271167 0.0112566
    length 3.13809
    axis -0.000934958 0.0245693 1.46543 xyz
    dof rx ry rz
  end
  begin
    id 13
    name LeftArm
    direction 0.999943 0.00455037 -0.00961766
    length 11.3419
    axis -23.1648 0.685459 1.22814 xyz
    dof rx ry rz
  end
  begin
    id 14
    name LeftForeArm
    direction 0.999332 0.0131969 0.0340885
    length 8.70632
    axis -9.90633 0.618216 0.0826942 xyz
    dof rx ry rz
  end
  begin
    id 15
    name LeftHand
    direction 0.994373 -0.0366703 0.0993905
    length 5.32135
    axis 0.00675269 0.680415 0.445699 xyz
    dof rx ry rz
  end
  begin
    id 16
    name RightShoulderDummy
    direction -0.967298 0.252589 -0.0230903
    length 3.68488
    axis -0.000934958 0.0245693 1.46543 xyz
  end
  begin
    id 17
    name RightShoulder
    direction -0.975062 0.221602 0.0120823
    length 3.13809
    axis 0.216257 0.0246515 1.45863 xyz
    dof rx ry rz
  end
  begin
    id 18
    name RightArm
    direction -0.99886 -0.00851186 -0.0469687
    length 10.3947
    axis -23.196 0.23503 -0.532632 xyz
    dof rx ry rz
  end
  begin
    id 19
    name RightForeArm
    direction -0.99909 0.00114866 0.0426317
    length 8.68355
    axis -9.91764 -0.134943 0.610517 xyz
    dof rx ry rz
  end
  begin
    id 20
    name RightHand
    direction -0.992888 -0.0489538 0.10852
    length 5.28593
    axis -0.00275396 -0.197403 0.246414 xyz
    dof rx ry rz
  end
  begin
    id 21
    name LeftUpLegDummy
    direction 1 -2.30186e-007 -8.31532e-007
    length 4.04083
    axis 0 0 0 xyz
  end
  begin
    id 22
    name LeftUpLeg
    direction -0.000920097 -1 2.79241e-006
    length 17.4221
    axis -3.48782 0.00143434 -0.0532288 xyz
    dof rx ry rz
  end
  begin
    id 23
    name LeftLeg
    direction -0.000920097 -1 2.7912e-006
    length 17.1239
    axis 3.68162 -0.00806512 -0.0529896 xyz
    dof rx ry rz
  end
  begin
    id 24
    name LeftFoot
    direction -2.57845e-005 -3.987e-007 1
    length 6.72091
    axis 3.02372e-005 -0.00147829 -0.214229 xyz
    dof rx ry rz
  end
  begin
    id 25
    name LeftToes
    direction 0.00813577 -0.00488255 0.999955
    length 3.85048
    axis 3.89895e-005 -0.0014783 -0.214229 xyz
    dof rx ry rz
  end
:hierarchy
  begin
    root RightUpLegDummy SpineDummy LeftUpLegDummy
    RightUpLegDummy RightUpLeg
    RightUpLeg RightLeg
    RightLeg RightFoot
    RightFoot RightToes
    SpineDummy Spine
    Spine Spine1
    Spine1 HEadDummy LeftShoulder1Dummy RightShoulderDummy
    HEadDummy HEad
    LeftShoulder1Dummy LeftShoulder1
    LeftShoulder1 LeftArm
    LeftArm LeftForeArm
    LeftForeArm LeftHand
    RightShoulderDummy RightShoulder
    RightShoulder RightArm
    RightArm RightForeArm
    RightForeArm RightHand
    LeftUpLegDummy LeftUpLeg
    LeftUpLeg LeftLeg
    LeftLeg LeftFoot
    LeftFoot LeftToes
  end

:SAMPLES-PER-SECOND 30
:FULLY-SPECIFIED
:DEGREES
1
root  -10.4858 34.5233 -12.1288 -170.999 6.29491 -179.886
RightUpLeg  -7.51413 -15.2655 -2.39367
RightLeg  6.28054 -2.83082 -0.132005
RightFoot  4.44565 0.0261718 -0.0425184
RightToes  -27.1865 -0.117119 -0.230814
Spine  -2.46686 0.186368 0.0121589
Spine1  -5.01594 0.457176 0.57413
HEad  -62.1326 4.94023 6.89159
LeftShoulder1  -1.94126e-019 -3.10601e-018 -2.51263e-017
LeftArm  -10.3535 27.1965 -79.2866
LeftForeArm  31.5559 -20.1465 -3.07929
LeftHand  -0.229713 -0.165613 4.88366
RightShoulder  -4.96962e-017 0 -2.36833e-017
RightArm  -21.8333 -25.3293 75.5583
RightForeArm  53.7394 16.1409 1.08996
RightHand  -0.322611 -1.09317 -8.5989
LeftUpLeg  -7.62027 4.14086 3.63852
LeftLeg  5.50301 13.0016 0.409102
LeftFoot  5.78302 -0.0658976 1.43942
LeftToes  -26.6701 2.14545e-006 -7.7278e-009
2
root  -10.487 34.5233 -12.1313 -170.992 6.31183 -179.886
RightUpLeg  -7.52699 -15.2317 -2.3923
RightLeg  6.29505 -2.84287 -0.131521
RightFoot  4.44689 0.0266711 -0.0435568
RightToes  -27.1933 -0.117119 -0.230814
Spine  -2.45831 0.19212 0.00769462
Spine1  -4.99908 0.46865 0.564813
HEad  -61.9971 5.0054 6.76796
LeftShoulder1  -1.94126e-019 -3.10601e-018 -2.51263e-017
LeftArm  -10.3803 27.1656 -79.3027
LeftForeArm  31.5601 -20.1988 -3.08507
LeftHand  -0.23007 -0.194033 4.90064
RightShoulder  -4.96962e-017 0 -2.36833e-017
RightArm  -21.816 -25.3165 75.5571
RightForeArm  53.7112 16.1563 1.08616
RightHand  -0.322908 -1.12628 -8.60177
LeftUpLeg  -7.61855 4.13611 3.63647
LeftLeg  5.49939 13.0261 0.409047
LeftFoot  5.78337 -0.065932 1.43995
LeftToes  -26.7028 2.14545e-006 -7.7278e-009
3
root  -10.4892 34.5232 -12.1343 -170.982 6.32211 -179.886
RightUpLeg  -7.5384 -15.2054 -2.39194
RightLeg  6.30395 -2.85252 -0.129155
RightFoot  4.44838 0.0271917 -0.044693
RightToes  -27.2086 -0.117119 -0.230814
Spine  -2.45146 0.19723 0.00542071
Spine1  -4.98559 0.478549 0.559453
HEad  -61.9206 5.06722 6.74786
LeftShoulder1  -1.94126e-019 -3.10601e-018 -2.51263e-017
LeftArm  -10.4098 27.1345 -79.3255
LeftForeArm  31.5498 -20.235 -3.0897
LeftHand  -0.230976 -0.204217 4.87414
RightShoulder  -4.96962e-017 0 -2.36833e-017
RightArm  -21.8344 -25.3097 75.5535
RightForeArm  53.6903 16.1494 1.08776
RightHand  -0.323271 -1.11684 -8.6092
LeftUpLeg  -7.62623 4.13142 3.63138
LeftLeg  5.50712 13.0422 0.409659
LeftFoot  5.76839 -0.0659916 1.44088
LeftToes  -26.7583 2.14545e-006 -7.7278e-009
4
root  -10.4908 34.5229 -12.1382 -170.967 6.33289 -179.886
RightUpLeg  -7.54623 -15.2407 -2.39624
RightLeg  6.29394 -2.82224 -0.127281
RightFoot  4.45107 0.0277329 -0.0459258
RightToes  -27.2045 -0.117119 -0.230814
Spine  -2.44358 0.199293 0.00264343
Spine1  -4.96998 0.481526 0.553476
HEad  -61.8282 5.12582 6.66543
LeftShoulder1  -1.94126e-019 -3.10601e-018 -2.51263e-017
LeftArm  -10.4321 27.0952 -79.3613
LeftForeArm  31.5368 -20.2282 -3.08993
LeftHand  -0.230589 -0.198533 4.93222
RightShoulder  -4.96962e-017 0 -2.36833e-017
RightArm  -21.8511 -25.3 75.5622
RightForeArm  53.684 16.1378 1.0905
RightHand  -0.324093 -1.11414 -8.59999
LeftUpLeg  -7.63567 4.13777 3.62447
LeftLeg  5.51468 13.0472 0.411531
LeftFoot  5.77596 -0.0661301 1.44303
LeftToes  -26.7857 2.14545e-006 -7.7278e-009
5
root  -10.494 34.5226 -12.1469 -170.938 6.34747 -179.886
RightUpLeg  -7.55164 -15.2767 -2.40062
RightLeg  6.26486 -2.77204 -0.123594
RightFoot  4.4686 0.028294 -0.0472541
RightToes  -27.2743 -0.117119 -0.230814
Spine  -2.43733 0.199862 0.00100885
Spine1  -4.95735 0.482397 0.550184
HEad  -61.8527 5.17164 6.65242
LeftShoulder1  -1.94126e-019 -3.10601e-018 -2.51263e-017
LeftArm  -10.4575 27.0781 -79.3922
LeftForeArm  31.527 -20.2478 -3.09394
LeftHand  -0.23142 -0.204766 4.90592
RightShoulder  -4.96962e-017 0 -2.36833e-017
RightArm  -21.8211 -25.3139 75.5684
RightForeArm  53.7219 16.1406 1.08957
RightHand  -0.323411 -1.18165 -8.64329
LeftUpLeg  -7.65807 4.18369 3.61494
LeftLeg  5.5289 13.0202 0.417554
LeftFoot  5.73801 -0.0653677 1.43118
LeftToes  -26.7382 2.14545e-006 -7.7278e-009
6
root  -10.4947 34.5217 -12.157 -170.908 6.36884 -179.886
RightUpLeg  -7.55844 -15.2803 -2.4025
RightLeg  6.24296 -2.75075 -0.121587
RightFoot  4.45833 0.0288744 -0.0486766
RightToes  -27.2367 -0.117119 -0.230814
Spine  -2.43113 0.199105 -2.82913e-005
Spine1  -4.94476 0.479925 0.547836
HEad  -61.8801 5.21726 6.62824
LeftShoulder1  -1.94126e-019 -3.10601e-018 -2.51263e-017
LeftArm  -10.4497 27.0815 -79.4109
LeftForeArm  31.5396 -20.2958 -3.09932
LeftHand  -0.232176 -0.182467 4.87528
RightShoulder  -4.96962e-017 0 -2.36833e-017
RightArm  -21.8267 -25.3164 75.5744
RightForeArm  53.7117 16.1221 1.09423
RightHand  -0.323774 -1.15274 -8.64371
LeftUpLeg  -7.67452 4.20154 3.60854
LeftLeg  5.5424 13.0291 0.418838
LeftFoot  5.73172 -0.0653264 1.43054
LeftToes  -26.7904 2.14545e-006 -7.7278e-009
7
root  -10.4954 34.5203 -12.1655 -170.885 6.37379 -179.886
RightUpLeg  -7.5666 -15.2535 -2.40321
RightLeg  6.2404 -2.77133 -0.122379
RightFoot  4.46259 0.0294735 -0.0501919
RightToes  -27.2962 -0.117119 -0.230814
Spine  -2.42473 0.195753 -0.000955349
Spine1  -4.93178 0.472352 0.545789
HEad  -61.873 5.20115 6.63161
LeftShoulder1  -1.94126e-019 -3.10601e-018 -2.51263e-017
LeftArm  -10.4224 27.0896 -79.4212
LeftForeArm  31.5337 -20.3382 -3.1041
LeftHand  -0.232751 -0.194936 4.86091
RightShoulder  -4.96962e-017 0 -2.36833e-017
RightArm  -21.8586 -25.3343 75.5956
RightForeArm  53.6963 16.1257 1.09356
RightHand  -0.323701 -1.163 -8.64897
LeftUpLeg  -7.68743 4.20415 3.60433
LeftLeg  5.55348 13.0291 0.421335
LeftFoot  5.71531 -0.0650757 1.42664
LeftToes  -26.7964 2.14545e-006 -7.7278e-009
8
root  -10.4961 34.5187 -12.1756 -170.861 6.37074 -179.886
RightUpLeg  -7.58552 -15.2035 -2.40608
RightLeg  6.26871 -2.81889 -0.125887
RightFoot  4.43982 0.0300905 -0.0517989
RightToes  -27.3294 -0.117119 -0.230814
Spine  -2.41736 0.187376 -0.00225971
Spine1  -4.91712 0.454851 0.543016
HEad  -61.812 5.20228 6.60526
LeftShoulder1  -1.94126e-019 -3.10601e-018 -2.51263e-017
LeftArm  -10.3947 27.0912 -79.4215
LeftForeArm  31.5041 -20.3425 -3.1051
LeftHand  -0.232914 -0.222662 4.87441
RightShoulder  -4.96962e-017 0 -2.36833e-017
RightArm  -21.9299 -25.3515 75.6415
RightForeArm  53.6401 16.1148 1.09697
RightHand  -0.325055 -1.18611 -8.58458
LeftUpLeg  -7.70493 4.18339 3.60184
LeftLeg  5.57938 13.0574 0.428094
LeftFoot  5.6595 -0.0644196 1.41644
LeftToes  -26.6313 2.14545e-006 -7.7278e-009
